<svg width="192" height="259" viewBox="0 0 192 259" fill="none" xmlns="http://www.w3.org/2000/svg">
<g clip-path="url(#clip0_1_13)">
<path d="M125.914 237.078C102.834 264.872 55.4402 221.195 81.7609 243.052C108.082 264.909 148.129 260.097 171.21 232.303C194.29 204.51 191.663 164.26 165.343 142.402C139.022 120.545 148.995 209.284 125.914 237.078Z" fill="url(#paint0_linear_1_13)"/>
<path d="M51.1274 170.63C25.9984 236.43 137.468 273.338 75.2179 249.564C12.9674 225.791 -9.17214 154.941 15.9569 89.1409C41.0859 23.3412 111.921 -10.7277 174.172 13.0459C236.422 36.8195 76.2564 104.83 51.1274 170.63Z" fill="#7FFFD4"/>
</g>
<defs>
<linearGradient id="paint0_linear_1_13" x1="185.317" y1="158.989" x2="101.684" y2="259.701" gradientUnits="userSpaceOnUse">
<stop offset="0.0002" stop-color="#E0F2F6"/>
<stop offset="1" stop-color="#7FFFD4"/>
</linearGradient>
<clipPath id="clip0_1_13">
<rect width="192" height="259" fill="white"/>
</clipPath>
</defs>
</svg>
